# xmcd
#
# Track frame offsets:
#	150
#	13788
#	36429
#	49680
#	62177
#	75054
#	87302
#	103745
#	115771
#	130338
#	145667
#
# Disc length: 2099 seconds
#
# Revision: 0
# Processed by: cddbd v1.5.1PL2 Copyright (c) Steve Scherf et al.
# Submitted via: dBpowerAMP V4.0
#
DISCID=8b08310b
DTITLE=David Allan Coe - The Ride
DYEAR=2005
DGENRE=Country
TTITLE0=The Ride
TTITLE1=If That Ain't Country (I'll Kiss Your SSS...)
TTITLE2=In the Heart of Dixie
TTITLE3=I Haven't Seen Mama in Years
TTITLE4=California Turnarounds
TTITLE5=My Kind of Music
TTITLE6=Yellow Rose of Texas
TTITLE7=I Can't Stop Now
TTITLE8=Just Because
TTITLE9=Strawberry Roan
TTITLE10=Skip to my Lou
EXTD=Kelcey Coe, KelceyCoe.com
EXTT0=
EXTT1=
EXTT2=
EXTT3=
EXTT4=
EXTT5=
EXTT6=
EXTT7=
EXTT8=
EXTT9=
EXTT10=
PLAYORDER=
